<?xml version="1.0" standalone="no"?><!DOCTYPE svg PUBLIC "-//W3C//DTD SVG 1.1//EN" "http://www.w3.org/Graphics/SVG/1.1/DTD/svg11.dtd"><svg t="1546480924467" class="icon" style="" viewBox="0 0 1024 1024" version="1.1" xmlns="http://www.w3.org/2000/svg" p-id="2652" data-spm-anchor-id="a313x.7781069.0.i5" xmlns:xlink="http://www.w3.org/1999/xlink" width="200" height="200"><defs><style type="text/css"></style></defs><path d="M509.281004 8.857262C229.575235 8.857262 5.520861 230.537985 5.520861 509.932273s224.054374 507.222382 503.760143 507.222382c279.733723 0 503.784103-227.852054 503.784103-507.224778S789.015526 8.857262 509.281004 8.857262zM508.630088 940.946265c-237.987189 0-428.138777-194.108204-428.138777-431.814261 0-237.718037 190.126829-425.428886 428.138777-425.428886 237.999169 0 428.11881 187.710849 428.11881 425.428886C936.728931 746.837263 746.630056 940.946265 508.630088 940.946265zM461.373522 329.043671c-9.572072-8.042617-26.140502-8.042617-35.708581 0L425.664942 697.97457c9.568079 8.066577 26.136509 8.066577 35.708581 0l209.634368-170.259888c9.552105-8.042617 9.552105-21.078525 0-29.121142L461.373522 329.043671z" p-id="2653" data-spm-anchor-id="a313x.7781069.0.i4" class="selected" fill="#ffffff"></path></svg>