<?xml version="1.0" standalone="no"?><!DOCTYPE svg PUBLIC "-//W3C//DTD SVG 1.1//EN" "http://www.w3.org/Graphics/SVG/1.1/DTD/svg11.dtd"><svg t="1546479006573" class="icon" style="" viewBox="0 0 1024 1024" version="1.1" xmlns="http://www.w3.org/2000/svg" p-id="1738" xmlns:xlink="http://www.w3.org/1999/xlink" width="200" height="200"><defs><style type="text/css"></style></defs><path d="M812.33749999 512c0 55.28749999 44.825 100.1125 100.11250001 100.1125s100.1125-44.825 100.1125-100.1125c0-55.28749999-44.825-100.1125-100.1125-100.1125S812.3375 456.7125 812.33749999 512zM612.1125 512c0-55.28749999-44.825-100.1125-100.1125-100.1125s-100.1125 44.825-100.1125 100.1125c0 55.28749999 44.825 100.1125 100.1125 100.1125S612.1125 567.2875 612.1125 512zM211.66250001 512c0-55.28749999-44.775-100.1125-100.11250001-100.1125-55.28749999 0-100.1125 44.825-100.1125 100.1125 0 55.28749999 44.825 100.1125 100.1125 100.1125C166.8875 612.1125 211.6625 567.2875 211.66250001 512z" p-id="1739"></path></svg>