<?xml version="1.0" standalone="no"?><!DOCTYPE svg PUBLIC "-//W3C//DTD SVG 1.1//EN" "http://www.w3.org/Graphics/SVG/1.1/DTD/svg11.dtd"><svg t="1546411614769" class="icon" style="" viewBox="0 0 1024 1024" version="1.1" xmlns="http://www.w3.org/2000/svg" p-id="2177" xmlns:xlink="http://www.w3.org/1999/xlink" width="200" height="200"><defs><style type="text/css"></style></defs><path d="M992.2 923.7L821.4 752.9c64.5-80.1 99.7-178.9 99.7-283.2 0-120.9-47.1-234.6-132.6-320.2S589.3 17 468.3 17 233.6 64.1 148.1 149.6c-176.5 176.5-176.5 463.8 0 640.3 85.5 85.5 199.2 132.6 320.2 132.6 104.3 0 203.1-35.2 283.2-99.7l170.8 170.8c9.7 9.7 22.3 14.5 35 14.5 12.6 0 25.3-4.8 35-14.5 19.2-19.3 19.2-50.6-0.1-69.9zM218.1 720c-138-138-138-362.5 0-500.5 69-69 159.6-103.5 250.2-103.5s181.3 34.5 250.3 103.5c138 138 138 362.5 0 500.5s-362.5 138-500.5 0z" p-id="2178"></path></svg>