<?xml version="1.0" standalone="no"?><!DOCTYPE svg PUBLIC "-//W3C//DTD SVG 1.1//EN" "http://www.w3.org/Graphics/SVG/1.1/DTD/svg11.dtd"><svg t="1546504071092" class="icon" style="" viewBox="0 0 1349 1024" version="1.1" xmlns="http://www.w3.org/2000/svg" p-id="3498" xmlns:xlink="http://www.w3.org/1999/xlink" width="263.4765625" height="200"><defs><style type="text/css"></style></defs><path d="M124.145584 797.210279A417.875658 417.875658 0 0 1 0 500.234569c0-104.671767 43.410384-201.635148 129.419743-287.644507 79.923791-80.329495 180.944217-122.92847 291.295847-122.92847h459.257519V40.16564c0-24.747976 21.908044-40.164748 42.193271-40.164747a40.083607 40.083607 0 0 1 21.502339 6.085567L1127.452868 97.369978c12.982545 8.11409 20.285226 19.879522 20.285226 32.456362s-7.302681 24.342271-19.879521 32.050657l-188.652603 102.23754a30.955255 30.955255 0 0 1-17.03959 4.868454c-22.313749 0-42.598975-22.719453-42.598975-47.467429V163.094111H416.658545c-175.670058 0-341.603208 163.904627-341.603208 336.734753 0 83.980836 40.164748 172.018718 110.757334 240.988487l4.46275 4.462749-58.421451 59.638565zM426.801158 1023.999107a40.083607 40.083607 0 0 1-21.50234-6.085567l-183.784149-91.283518c-12.982545-8.11409-20.285226-19.879522-20.285226-32.456362s7.302681-24.342271 19.879522-32.050657l188.652603-102.23754a30.955255 30.955255 0 0 1 17.03959-4.868454c22.313749 0 42.598975 22.719453 42.598975 47.467429v58.421451h463.314564c175.670058 0 341.603208-163.904627 341.603208-336.734753 0-78.706677-36.513407-162.687514-99.803312-230.034465l-5.679864-5.679863 6.896977-4.057045 65.724133-39.353339 3.651341 4.057045a413.210056 413.210056 0 0 1 104.266062 275.473371c0 104.671767-43.410384 201.635148-129.419743 287.644507-80.329495 80.329495-180.944217 122.92847-291.295847 122.92847H468.994428v49.495952c0 23.936567-21.908044 39.353339-42.19327 39.353338z" p-id="3499"></path></svg>